# xmcd CD Database Entry
#
# Track frame offsets:
# 150
# 26897
# 54567
# 73767
# 101220
# 118465
# 145290
# 173657
# 192840
# 205155
# 222080
# 246857
#
# Disc length: 3663 seconds
#
# Revision: 1
# Processed by: cddbd v1.4b42PL1 Copyright (c) Steve Scherf et al.
# Submitted via: tcd 2.0b
#
DISCID=bd0e4d0c
DTITLE=Kenny Wayne Shepherd - Ledbetter Heights
DYEAR=1900
DGENRE=
TTITLE0=Born With a Broken Heart
TTITLE1=Deja Voodoo
TTITLE2=Aberdeen
TTITLE3=Shame, Shame, Shame
TTITLE4=One Foot On the Path
TTITLE5=Everybody Gets the Blues
TTITLE6=While We Cry (Live)
TTITLE7=I'm Leaving You (Commit a Crime)
TTITLE8=(Let Me Up) I've Had Enough
TTITLE9=Riverside
TTITLE10=What's Goin' Down
TTITLE11=Ledbetter Heights
EXTD=
EXTT0=
EXTT1=
EXTT2=
EXTT3=
EXTT4=
EXTT5=
EXTT6=
EXTT7=
EXTT8=
EXTT9=
EXTT10=
EXTT11=
PLAYORDER=
